<?xml version="1.0" standalone="no"?><!DOCTYPE svg PUBLIC "-//W3C//DTD SVG 1.1//EN" "http://www.w3.org/Graphics/SVG/1.1/DTD/svg11.dtd"><svg t="1653289203950" class="icon" viewBox="0 0 1024 1024" version="1.1" xmlns="http://www.w3.org/2000/svg" p-id="6257" xmlns:xlink="http://www.w3.org/1999/xlink" width="200" height="200"><defs><style type="text/css">@font-face { font-family: feedback-iconfont; src: url("//at.alicdn.com/t/font_1031158_u69w8yhxdu.woff2?t=1630033759944") format("woff2"), url("//at.alicdn.com/t/font_1031158_u69w8yhxdu.woff?t=1630033759944") format("woff"), url("//at.alicdn.com/t/font_1031158_u69w8yhxdu.ttf?t=1630033759944") format("truetype"); }
</style></defs><path d="M513.4848 508.0576m-450.816 0a450.816 450.816 0 1 0 901.632 0 450.816 450.816 0 1 0-901.632 0Z" fill="#3CD38E" p-id="6258"></path><path d="M514.4064 174.3872c184.4224 1.2288 333.5168 151.2448 332.6464 334.6432-0.8704 184.2176-151.2448 333.824-334.4896 332.8-185.088-1.024-334.2848-152.0128-332.4928-336.4864 1.6896-183.296 152.1664-332.2368 334.336-330.9568zM305.7664 607.232c2.9184 39.936 22.1184 74.1888 62.6688 93.0304 39.68 18.4832 79.6672 15.104 112.5888-13.6192 34.6112-30.208 66.8672-63.5392 97.3824-97.9968 25.2416-28.4672 28.1088-63.5392 16.6912-99.4304-7.424-23.3984-21.5552-32.3584-39.9872-26.4192-17.4592 5.5808-23.3472 19.8656-16.8448 43.008 5.4784 19.5072 4.096 37.5808-10.4448 52.5312-26.2144 26.9824-52.3776 54.0672-79.7696 79.7696-21.0944 19.7632-50.3808 18.5856-68.8128-0.4096-18.944-19.456-19.0464-49.408 0.3072-70.656 9.3696-10.2912 19.8656-19.6096 29.3888-29.7984 12.0832-13.0048 12.0832-31.1296 0.512-42.3936-10.9568-10.7008-28.5696-11.008-41.1136 0.5632-12.9024 11.9296-25.3952 24.4224-36.9664 37.632-17.4592 19.9168-25.3952 43.776-25.6 74.1888z m124.8768-119.1936c0.4096 4.096 0.8192 12.032 2.1504 19.7632 0.9216 5.3248 2.816 10.5472 4.8128 15.5648 7.68 19.5072 23.1424 28.0576 39.5264 22.1696 15.104-5.4272 21.9648-21.8112 15.9232-40.704-7.424-23.2448-2.304-42.8032 14.7968-59.8528 24.1152-23.9616 47.7696-48.3328 71.9872-72.192 20.8384-20.48 50.944-21.6576 70.3488-3.2768 20.1216 19.0464 20.6848 49.6128 0.7168 71.8848-8.9088 9.9328-18.944 18.7904-28.0576 28.5696-12.9536 13.8752-13.2608 30.3104-1.4336 42.1888 12.3392 12.3392 28.7744 13.1584 42.0864 0.4096 13.9776-13.3632 27.904-27.136 39.8336-42.3424 33.1776-42.2912 27.6992-105.1136-11.264-142.4384-39.5776-37.9392-101.6832-41.3696-142.4384-5.4784-31.3856 27.648-60.8256 57.5488-90.0096 87.552-19.6608 20.2752-28.7744 45.8752-28.9792 78.1824z" fill="#FFFFFF" p-id="6259"></path></svg>