<?xml version="1.0" standalone="no"?><!DOCTYPE svg PUBLIC "-//W3C//DTD SVG 1.1//EN" "http://www.w3.org/Graphics/SVG/1.1/DTD/svg11.dtd"><svg t="1653289312677" class="icon" viewBox="0 0 1024 1024" version="1.1" xmlns="http://www.w3.org/2000/svg" p-id="6414" xmlns:xlink="http://www.w3.org/1999/xlink" width="200" height="200"><defs><style type="text/css">@font-face { font-family: feedback-iconfont; src: url("//at.alicdn.com/t/font_1031158_u69w8yhxdu.woff2?t=1630033759944") format("woff2"), url("//at.alicdn.com/t/font_1031158_u69w8yhxdu.woff?t=1630033759944") format("woff"), url("//at.alicdn.com/t/font_1031158_u69w8yhxdu.ttf?t=1630033759944") format("truetype"); }
</style></defs><path d="M517.888 518.7584m-450.816 0a450.816 450.816 0 1 0 901.632 0 450.816 450.816 0 1 0-901.632 0Z" fill="#8486F8" p-id="6415"></path><path d="M745.9328 260.8128H290.6624c-38.2464 0-69.2736 31.0272-69.2736 69.2736v319.1808c0 38.2464 31.0272 69.2736 69.2736 69.2736h455.2704c38.2464 0 69.2736-31.0272 69.2736-69.2736V330.0864c0-38.2464-31.0272-69.2736-69.2736-69.2736z m-75.4176 198.144l-84.736 77.9264a33.9456 33.9456 0 0 1-45.9264 0l-55.3472-50.944-72.2432 68.0448a33.8944 33.8944 0 0 1-23.2448 9.216 33.8944 33.8944 0 0 1-23.2448-58.5728l95.2832-89.7024a33.96096 33.96096 0 0 1 46.2336-0.256l55.6032 51.2L624.64 409.088c13.7728-12.6976 35.2256-11.776 47.9232 1.9968 12.6464 13.7728 11.776 35.2256-2.048 47.872zM675.072 752.6912H361.472c-18.7392 0-33.8944 15.2064-33.8944 33.8944 0 18.7392 15.2064 33.8944 33.8944 33.8944h313.6c18.7392 0 33.8944-15.2064 33.8944-33.8944 0.0512-18.7392-15.1552-33.8944-33.8944-33.8944z" fill="#FFFFFF" p-id="6416"></path></svg>