<?xml version="1.0" standalone="no"?><!DOCTYPE svg PUBLIC "-//W3C//DTD SVG 1.1//EN" "http://www.w3.org/Graphics/SVG/1.1/DTD/svg11.dtd"><svg t="1653293589886" class="icon" viewBox="0 0 1024 1024" version="1.1" xmlns="http://www.w3.org/2000/svg" p-id="7051" xmlns:xlink="http://www.w3.org/1999/xlink" width="200" height="200"><defs><style type="text/css">@font-face { font-family: feedback-iconfont; src: url("//at.alicdn.com/t/font_1031158_u69w8yhxdu.woff2?t=1630033759944") format("woff2"), url("//at.alicdn.com/t/font_1031158_u69w8yhxdu.woff?t=1630033759944") format("woff"), url("//at.alicdn.com/t/font_1031158_u69w8yhxdu.ttf?t=1630033759944") format("truetype"); }
</style></defs><path d="M509.184 513.1264m-450.816 0a450.816 450.816 0 1 0 901.632 0 450.816 450.816 0 1 0-901.632 0Z" fill="#3CD38E" p-id="7052"></path><path d="M381.8496 365.056m-116.7872 0a116.7872 116.7872 0 1 0 233.5744 0 116.7872 116.7872 0 1 0-233.5744 0Z" fill="#FFFFFF" p-id="7053"></path><path d="M532.864419 417.290804a116.7872 116.7872 0 1 0 208.915387-104.457461 116.7872 116.7872 0 1 0-208.915387 104.457461Z" fill="#FFFFFF" p-id="7054"></path><path d="M637.952 507.5456c-51.3024 0-97.28 23.4496-127.744 60.16-30.464-36.7104-76.3904-60.16-127.744-60.16-91.4432 0-165.888 74.3936-165.888 165.888v96.512h78.848v-96.512c0-47.9744 39.0144-86.9888 86.9888-86.9888s86.9888 39.0144 86.9888 86.9888v96.512h81.408v-96.512c0-47.9744 39.0144-86.9888 86.9888-86.9888s86.9888 39.0144 86.9888 86.9888v96.512H803.84v-96.512c0-91.4432-74.3936-165.888-165.888-165.888z" fill="#FFFFFF" p-id="7055"></path></svg>