<?xml version="1.0" standalone="no"?><!DOCTYPE svg PUBLIC "-//W3C//DTD SVG 1.1//EN" "http://www.w3.org/Graphics/SVG/1.1/DTD/svg11.dtd"><svg t="1653293513231" class="icon" viewBox="0 0 1024 1024" version="1.1" xmlns="http://www.w3.org/2000/svg" p-id="6732" xmlns:xlink="http://www.w3.org/1999/xlink" width="200" height="200"><defs><style type="text/css">@font-face { font-family: feedback-iconfont; src: url("//at.alicdn.com/t/font_1031158_u69w8yhxdu.woff2?t=1630033759944") format("woff2"), url("//at.alicdn.com/t/font_1031158_u69w8yhxdu.woff?t=1630033759944") format("woff"), url("//at.alicdn.com/t/font_1031158_u69w8yhxdu.ttf?t=1630033759944") format("truetype"); }
</style></defs><path d="M503.7056 513.1264m-450.816 0a450.816 450.816 0 1 0 901.632 0 450.816 450.816 0 1 0-901.632 0Z" fill="#FF4D7C" p-id="6733"></path><path d="M503.7056 183.3984c-182.0672 0-329.728 147.6096-329.728 329.728 0 182.0672 147.6096 329.728 329.728 329.728s329.728-147.6096 329.728-329.728c-0.0512-182.1184-147.6608-329.728-329.728-329.728zM671.8976 624.64H452.3008l33.4336 55.4496-61.3888 37.0176-86.9888-144.2304c-5.2736-8.7552 1.024-19.9168 11.264-19.9168h323.2768v71.68z m-13.1072-142.592H335.4624v-71.68h219.5968l-33.4336-55.4496 61.3888-37.0176 86.9888 144.2304c5.2736 8.7552-1.024 19.9168-11.2128 19.9168z" fill="#FFFFFF" p-id="6734"></path></svg>