<?xml version="1.0" standalone="no"?><!DOCTYPE svg PUBLIC "-//W3C//DTD SVG 1.1//EN" "http://www.w3.org/Graphics/SVG/1.1/DTD/svg11.dtd"><svg t="1653293571985" class="icon" viewBox="0 0 1024 1024" version="1.1" xmlns="http://www.w3.org/2000/svg" p-id="6891" xmlns:xlink="http://www.w3.org/1999/xlink" width="200" height="200"><defs><style type="text/css">@font-face { font-family: feedback-iconfont; src: url("//at.alicdn.com/t/font_1031158_u69w8yhxdu.woff2?t=1630033759944") format("woff2"), url("//at.alicdn.com/t/font_1031158_u69w8yhxdu.woff?t=1630033759944") format("woff"), url("//at.alicdn.com/t/font_1031158_u69w8yhxdu.ttf?t=1630033759944") format("truetype"); }
</style></defs><path d="M508.416 509.5936m-450.816 0a450.816 450.816 0 1 0 901.632 0 450.816 450.816 0 1 0-901.632 0Z" fill="#59ADF8" p-id="6892"></path><path d="M480.6656 800.3072c4.9664-6.656 10.5472-12.9024 14.7968-19.968 19.5072-32.4608 15.0016-70.4-13.2608-99.7888-42.0864-43.7248-84.736-86.9376-127.744-129.792-25.5488-25.4976-63.0272-24.576-89.4976 0.9216-18.4832 17.8176-36.8128 35.84-56.0128 54.528-17.408-6.3488-25.6512-20.6848-25.7536-39.3216-0.4096-66.6112-0.512-133.2224 0.0512-199.7824 0.2048-24.2176 15.9232-39.9872 39.6288-40.5504 29.9008-0.7168 59.8016-0.1536 91.3408-0.1536-1.9968 3.2256-3.2768 5.5296-4.7616 7.6288-16.5888 23.4496-12.8512 54.528 9.8304 72.448 32.4096 25.6512 68.7616 30.0544 107.3152 16.6912 26.2144-9.0624 52.3264-18.5856 78.2336-28.5184 7.8848-3.0208 12.3904-2.6112 17.6128 4.9664 56.6784 82.176 113.8176 164.096 170.752 246.1184 19.0976 27.5456 12.6976 52.5824-17.3056 67.5328-56.2176 27.9552-112.4352 55.8592-168.8576 83.4048-7.5776 3.6864-16.384 5.0176-24.6272 7.424-0.5632-1.28-1.1776-2.56-1.7408-3.7888z" fill="#FFFFFF" p-id="6893"></path><path d="M538.5216 324.7616c-38.2976 17.8688-75.4688 34.816-112.2816 52.5312-22.016 10.5984-42.7008 6.8608-62.8224-3.8912-14.08-7.5264-16.128-19.8144-4.5056-30.8736 14.2848-13.6192 29.0816-26.9824 45.2608-38.1952 32.2048-22.272 65.024-43.7248 98.4064-64.1536 41.8816-25.6512 82.9952-16.1792 123.4432 5.3248 37.888 20.1216 76.0832 39.6288 114.1248 59.4944 16.5376 8.6528 34.0992 10.4448 52.5312 10.0864 34.7648-0.6656 49.408 14.2848 49.408 48.7424 0.0512 61.952 0.0512 123.904 0 185.856-0.0512 33.9968-14.4384 48.2816-48.4864 48.3328-17.7152 0-35.4304-0.4608-53.0944 0.2048-8.96 0.3584-14.2848-2.4064-19.456-10.0352-57.7024-84.0192-115.8144-167.7312-173.8752-251.5456-2.6112-3.6864-5.376-7.3728-8.6528-11.8784zM449.1776 736.3072c-2.9696 10.5984-4.8128 21.6576-9.0624 31.6928-7.2704 17.2032-25.7024 22.784-40.8064 11.9296-45.5168-32.8192-90.7264-65.9968-135.5264-99.6864-17.8688-13.4656-19.0464-36.096-4.096-53.504 6.9632-8.0896 14.4384-15.7696 22.2208-23.0912 15.104-14.1824 37.6832-13.6192 52.4288 1.28 33.3824 33.5872 66.56 67.2768 99.9424 100.864 8.3456 8.3456 14.592 17.5616 14.8992 30.5152z" fill="#FFFFFF" p-id="6894"></path></svg>